<svg width="40" height="40" viewBox="0 0 40 40" fill="none" xmlns="http://www.w3.org/2000/svg">
<path d="M24.25 12.9167C24.25 15.2639 22.3472 17.1667 20 17.1667V18.6667C23.1756 18.6667 25.75 16.0923 25.75 12.9167H24.25ZM20 17.1667C17.6528 17.1667 15.75 15.2639 15.75 12.9167H14.25C14.25 16.0923 16.8244 18.6667 20 18.6667V17.1667ZM15.75 12.9167C15.75 10.5695 17.6528 8.66667 20 8.66667V7.16667C16.8244 7.16667 14.25 9.74103 14.25 12.9167H15.75ZM20 8.66667C22.3472 8.66667 24.25 10.5695 24.25 12.9167H25.75C25.75 9.74103 23.1756 7.16667 20 7.16667V8.66667ZM15 23.6667H25V22.1667H15V23.6667ZM25 32.1667H15V33.6667H25V32.1667ZM15 32.1667C12.6528 32.1667 10.75 30.2639 10.75 27.9167H9.25C9.25 31.0923 11.8244 33.6667 15 33.6667V32.1667ZM29.25 27.9167C29.25 30.2639 27.3472 32.1667 25 32.1667V33.6667C28.1756 33.6667 30.75 31.0923 30.75 27.9167H29.25ZM25 23.6667C27.3472 23.6667 29.25 25.5695 29.25 27.9167H30.75C30.75 24.741 28.1756 22.1667 25 22.1667V23.6667ZM15 22.1667C11.8244 22.1667 9.25 24.741 9.25 27.9167H10.75C10.75 25.5695 12.6528 23.6667 15 23.6667V22.1667Z" fill="#2D264B"/>
<path d="M12.9203 17.3144C12.6574 16.8921 12.1642 16.6667 11.6667 16.6667C9.59568 16.6667 7.91675 14.9877 7.91675 12.9167C7.91675 10.8456 9.59568 9.16667 11.6667 9.16667C12.1642 9.16667 12.6574 8.94122 12.9203 8.51892C12.9319 8.50024 12.9436 8.48161 12.9554 8.46303C13.3931 7.77218 13.1713 6.79401 12.3584 6.70451C12.1313 6.67951 11.9005 6.66667 11.6667 6.66667C8.21497 6.66667 5.41675 9.46489 5.41675 12.9167C5.41675 16.3685 8.21497 19.1667 11.6667 19.1667C11.9005 19.1667 12.1313 19.1538 12.3584 19.1288C13.1713 19.0393 13.3931 18.0612 12.9554 17.3703C12.9436 17.3517 12.9319 17.3331 12.9203 17.3144Z" fill="#2D264B"/>
<path d="M7.84723 30.5281C7.65803 30.2125 7.32407 30 6.95606 30H6.66675C4.59568 30 2.91675 28.3211 2.91675 26.25C2.91675 24.1789 4.59568 22.5 6.66675 22.5H6.95606C7.32407 22.5 7.65803 22.2875 7.84723 21.9719C8.30907 21.2014 7.80789 20 6.90957 20H6.66675C3.21497 20 0.416748 22.7982 0.416748 26.25C0.416748 29.7018 3.21497 32.5 6.66675 32.5H6.90957C7.80789 32.5 8.30907 31.2986 7.84723 30.5281Z" fill="#2D264B"/>
<path d="M27.0448 17.3703C26.6071 18.0612 26.8288 19.0393 27.6417 19.1288C27.8689 19.1538 28.0996 19.1667 28.3334 19.1667C31.7852 19.1667 34.5834 16.3685 34.5834 12.9167C34.5834 9.46489 31.7852 6.66667 28.3334 6.66667C28.0996 6.66667 27.8689 6.67951 27.6417 6.70451C26.8288 6.79401 26.6071 7.77218 27.0448 8.46303C27.0565 8.48161 27.0682 8.50023 27.0798 8.51891C27.3427 8.94121 27.836 9.16667 28.3334 9.16667C30.4045 9.16667 32.0834 10.8456 32.0834 12.9167C32.0834 14.9877 30.4045 16.6667 28.3334 16.6667C27.836 16.6667 27.3427 16.8921 27.0798 17.3144C27.0682 17.3331 27.0565 17.3517 27.0448 17.3703Z" fill="#2D264B"/>
<path d="M32.1529 30.5281C31.6911 31.2986 32.1923 32.5 33.0906 32.5H33.3334C36.7852 32.5 39.5834 29.7018 39.5834 26.25C39.5834 22.7982 36.7852 20 33.3334 20H33.0906C32.1923 20 31.6911 21.2014 32.1529 21.9719C32.3421 22.2875 32.6761 22.5 33.0441 22.5H33.3334C35.4045 22.5 37.0834 24.1789 37.0834 26.25C37.0834 28.3211 35.4045 30 33.3334 30H33.0441C32.6761 30 32.3421 30.2125 32.1529 30.5281Z" fill="#2D264B"/>
</svg>
