<svg width="40" height="40" viewBox="0 0 40 40" fill="none" xmlns="http://www.w3.org/2000/svg">
<path d="M11.6666 23.3333C12.7777 25.4762 15.9999 28.3333 19.9999 28.3333C23.9999 28.3333 27.2221 25.4762 28.3333 23.3333M36.6666 20C36.6666 29.2047 29.2047 36.6667 19.9999 36.6667C10.7952 36.6667 3.33325 29.2047 3.33325 20C3.33325 10.7952 10.7952 3.33333 19.9999 3.33333C29.2047 3.33333 36.6666 10.7952 36.6666 20Z" stroke="#2D264B" stroke-width="1.5" stroke-linecap="round"/>
<path d="M16.6666 13.3333C16.6666 14.2538 15.9204 15 14.9999 15C14.0794 15 13.3333 14.2538 13.3333 13.3333C13.3333 12.4128 14.0794 11.6667 14.9999 11.6667C15.9204 11.6667 16.6666 12.4128 16.6666 13.3333Z" fill="#2D264B"/>
<path d="M26.6666 13.3333C26.6666 14.2538 25.9204 15 24.9999 15C24.0794 15 23.3333 14.2538 23.3333 13.3333C23.3333 12.4128 24.0794 11.6667 24.9999 11.6667C25.9204 11.6667 26.6666 12.4128 26.6666 13.3333Z" fill="#2D264B"/>
</svg>
